<?xml version="1.0" encoding="utf-8"?>
<!-- Generator: Adobe Illustrator 16.0.0, SVG Export Plug-In . SVG Version: 6.00 Build 0)  -->
<!DOCTYPE svg PUBLIC "-//W3C//DTD SVG 1.1//EN" "http://www.w3.org/Graphics/SVG/1.1/DTD/svg11.dtd">
<svg version="1.1" id="Layer_1" xmlns="http://www.w3.org/2000/svg" xmlns:xlink="http://www.w3.org/1999/xlink" x="0px" y="0px"
	 width="155.683px" height="29.805px" viewBox="0 0 155.683 29.805" enable-background="new 0 0 155.683 29.805"
	 xml:space="preserve">
<g>
	<path fill="#D45133" d="M148.546,19c0.395-1.082,0.598-2.426,0.598-3.993c0-1.439-0.143-2.754-0.42-3.91
		c-0.279-1.145-0.738-2.139-1.367-2.951c-0.625-0.81-1.469-1.438-2.498-1.868c-1.041-0.432-2.143-0.656-3.68-0.656h-3.334v17.876
		h4.268c0.895,0,1.777-0.146,2.613-0.436c0.832-0.283,1.586-0.768,2.236-1.434C147.621,20.963,148.152,20.076,148.546,19"/>
	<path fill="#D45133" d="M147.843,0.779c1.629,0.602,3.059,1.52,4.252,2.725c1.189,1.205,2.133,2.73,2.805,4.532
		c0.355,0.967,0.617,2.031,0.783,3.182V0h-11.082C145.732,0.14,146.816,0.4,147.843,0.779"/>
	<path fill="#D45133" d="M155.085,20.299c-0.545,1.803-1.385,3.385-2.494,4.697c-1.107,1.318-2.512,2.365-4.168,3.117
		c-1.066,0.486-2.27,0.814-3.588,0.986h10.848V17.564C155.548,18.516,155.349,19.428,155.085,20.299"/>
	<polygon fill="#D45133" points="122.687,23.535 122.687,17.785 131.083,17.785 131.083,11.38 122.687,11.38 122.687,5.633 
		131.083,5.633 131.083,0 115.787,0 115.787,29.1 131.083,29.1 131.083,23.535 	"/>
	<polygon fill="#516370" points="0,0.121 20.101,0.121 20.101,4.524 5.098,4.524 5.098,12.148 16.845,12.148 16.845,16.307 
		5.098,16.307 5.098,29.232 0,29.232 	"/>
	<path fill="#516370" d="M39.67,29.232h-4.567v-2.938h-0.082c-0.57,1.061-1.419,1.914-2.547,2.553
		c-1.13,0.637-2.277,0.957-3.446,0.957c-2.773,0-4.777-0.688-6.014-2.061c-1.236-1.371-1.855-3.445-1.855-6.217V8.154h4.647v12.924
		c0,1.85,0.354,3.152,1.062,3.914c0.705,0.762,1.699,1.141,2.977,1.141c0.978,0,1.794-0.15,2.445-0.447
		c0.653-0.301,1.182-0.699,1.591-1.203c0.407-0.502,0.699-1.104,0.876-1.816c0.178-0.705,0.265-1.465,0.265-2.281V8.154h4.649
		V29.232z"/>
	<path fill="#516370" d="M79.939,8.154h4.357v4.076h0.082c0.137-0.57,0.4-1.127,0.797-1.672c0.393-0.543,0.867-1.039,1.424-1.488
		c0.561-0.447,1.18-0.807,1.857-1.078c0.676-0.271,1.373-0.409,2.08-0.409c0.543,0,0.916,0.014,1.119,0.041
		c0.205,0.027,0.414,0.054,0.637,0.081v4.486c-0.33-0.055-0.662-0.104-1.002-0.145c-0.34-0.039-0.672-0.061-1.002-0.061
		c-0.787,0-1.525,0.156-2.221,0.469c-0.693,0.312-1.299,0.775-1.814,1.387c-0.516,0.613-0.924,1.364-1.221,2.262
		c-0.303,0.896-0.451,1.932-0.451,3.1v10.029h-4.643V8.154z"/>
	<path fill="#516370" d="M107.552,22.98c-0.402,0.994-0.977,1.754-1.721,2.275c-0.826,0.588-1.922,0.877-3.281,0.877
		c-0.977,0-1.818-0.166-2.525-0.508c-0.707-0.34-1.293-0.797-1.754-1.365c-0.463-0.57-0.811-1.238-1.041-1.996
		c-0.23-0.766-0.346-1.551-0.346-2.367h15.49c0.191-1.58,0.088-3.105-0.303-4.586c-0.395-1.485-1.025-2.795-1.895-3.938
		c-0.871-1.139-1.965-2.057-3.283-2.75c-1.32-0.697-2.807-1.04-4.465-1.04c-1.576,0-2.99,0.3-4.24,0.897
		c-1.252,0.6-2.318,1.406-3.203,2.426c-0.881,1.02-1.562,2.201-2.037,3.549c-0.473,1.342-0.715,2.764-0.715,4.258
		c0,1.633,0.227,3.127,0.674,4.484c0.451,1.359,1.113,2.529,1.998,3.506c0.883,0.98,1.963,1.742,3.242,2.283
		c1.275,0.545,2.744,0.818,4.402,0.818c1.143,0,2.236-0.156,3.281-0.471c1.047-0.312,1.994-0.773,2.834-1.387
		c0.842-0.609,1.562-1.365,2.164-2.262c0.531-0.803,0.92-1.705,1.172-2.705H107.552z M97.353,14.636
		c0.285-0.678,0.668-1.27,1.141-1.775c0.477-0.5,1.047-0.896,1.713-1.18c0.668-0.285,1.408-0.43,2.223-0.43
		c0.787,0,1.5,0.154,2.141,0.471c0.639,0.311,1.182,0.719,1.629,1.223c0.449,0.502,0.801,1.092,1.062,1.773
		c0.258,0.68,0.412,1.385,0.469,2.122H96.884C96.912,16.053,97.068,15.316,97.353,14.636"/>
	<path fill="#516370" d="M72.092,8.154v12.231c0,0.814-0.088,1.576-0.264,2.283c-0.177,0.711-0.468,1.312-0.877,1.814
		c-0.409,0.504-0.938,0.904-1.591,1.203c-0.651,0.297-1.465,0.447-2.445,0.447c-1.278,0-2.271-0.379-2.978-1.141
		c-0.706-0.762-1.059-2.064-1.059-3.914V8.154H51.424V1.385h-4.646v6.769h-4.663v3.465h4.663v12.434
		c0.026,0.871,0.114,1.648,0.264,2.324c0.149,0.682,0.434,1.244,0.856,1.693c0.421,0.449,1.006,0.791,1.751,1.02
		c0.75,0.23,1.735,0.348,2.961,0.348c0.514,0,1.017-0.027,1.506-0.084c0.488-0.053,0.992-0.105,1.511-0.162v-3.586
		c-0.33,0.08-0.654,0.129-0.98,0.143c-0.327,0.012-0.651,0.018-0.978,0.018c-0.516,0-0.925-0.059-1.225-0.184
		c-0.299-0.121-0.523-0.303-0.672-0.549c-0.15-0.244-0.245-0.543-0.285-0.896c-0.041-0.354-0.063-0.775-0.063-1.264V11.619h6.807
		v9.909c0,2.771,0.616,4.846,1.854,6.217c1.236,1.373,3.242,2.061,6.016,2.061c1.167,0,2.315-0.32,3.445-0.959
		c1.125-0.637,1.976-1.49,2.546-2.551h0.082v2.938h4.568V8.154H72.092z"/>
</g>
</svg>
