<?xml version="1.0" encoding="utf-8"?>
<!-- Generator: Adobe Illustrator 16.0.0, SVG Export Plug-In . SVG Version: 6.00 Build 0)  -->
<!DOCTYPE svg PUBLIC "-//W3C//DTD SVG 1.1//EN" "http://www.w3.org/Graphics/SVG/1.1/DTD/svg11.dtd">
<svg version="1.1" id="Layer_1" xmlns="http://www.w3.org/2000/svg" xmlns:xlink="http://www.w3.org/1999/xlink" x="0px" y="0px"
	 width="30px" height="30px" viewBox="0 0 30 30" enable-background="new 0 0 30 30" xml:space="preserve">
<g>
	<path opacity="0.5" d="M30,28c0,1.104-0.896,2-2,2H2c-1.105,0-2-0.896-2-2V2c0-1.104,0.895-2,2-2h26c1.104,0,2,0.896,2,2V28z"/>
	<g>
		<g>
			<g>
				<g>
					<polygon fill="#FFFFFF" points="16.348,6.426 16.348,10.158 17.369,9.311 18.393,10.158 18.393,6.426 					"/>
				</g>
			</g>
			<g>
				<g>
					<path fill="#FFFFFF" d="M17.938,13.126h-6.998c-0.207,0-0.375-0.167-0.375-0.376c0-0.205,0.168-0.372,0.375-0.372h6.998
						c0.205,0,0.373,0.167,0.373,0.372C18.311,12.959,18.143,13.126,17.938,13.126z"/>
				</g>
				<g>
					<path fill="#FFFFFF" d="M17.938,15.622h-6.998c-0.207,0-0.375-0.169-0.375-0.374c0-0.207,0.168-0.377,0.375-0.377h6.998
						c0.205,0,0.373,0.17,0.373,0.377C18.311,15.453,18.143,15.622,17.938,15.622z"/>
				</g>
			</g>
		</g>
		<path fill="#FFFFFF" d="M16.486,21.785h-1.145v-0.002H9.418c-0.285-0.004-0.514-0.235-0.516-0.521V7.053
			c0-0.013,0-0.023,0.002-0.033c0.008,0,0.02,0,0.029,0h4.602v0.001h5.922c0.285,0.006,0.516,0.237,0.518,0.522v9.377
			c0.312-0.302,0.682-0.578,1.055-0.725V7.547V7.021c0-0.872-0.684-1.055-1.064-1.055h-0.516h-5.338H8.934
			c-0.756,0-1.086,0.56-1.086,1.087v5.416v8.789v0.525c0,0.873,0.684,1.055,1.062,1.055h0.518h5.336h2.674
			C17.135,22.504,16.795,22.126,16.486,21.785z"/>
		<g>
			<path fill-rule="evenodd" clip-rule="evenodd" fill="#FFFFFF" d="M23.055,17.708c-0.434-0.433-0.918-0.647-1.51-0.647
				c-0.564,0-1.195,0.451-1.666,0.928c-0.484-0.477-1.096-0.926-1.68-0.926c-0.572,0-1.076,0.17-1.496,0.59
				c-0.875,0.873-0.875,2.287,0,3.16c0.25,0.25,2.674,2.945,2.674,2.945c0.137,0.139,0.318,0.208,0.5,0.208
				c0.18,0,0.361-0.069,0.5-0.208c0,0,2.65-2.859,2.678-2.889C23.93,19.996,23.93,18.581,23.055,17.708z"/>
			<path fill-rule="evenodd" clip-rule="evenodd" fill="#FFFFFF" d="M22.371,18.303c-0.285-0.283-0.562-0.467-0.943-0.41
				c-0.271,0.041-0.891,0.472-1.275,0.861l-0.27,0.273h-0.02l-0.27-0.273c-0.385-0.39-1.006-0.82-1.275-0.861
				c-0.381-0.057-0.658,0.127-0.943,0.41c-0.266,0.266-0.414,0.621-0.414,0.997c0,0.377,0.219,0.804,0.488,1.071
				c0.021,0.023,1.32,1.433,2.293,2.484c0.047,0.043,0.1,0.049,0.127,0.049c0.002,0,0.002-0.016,0.004-0.041
				c0.002,0.025,0.002,0.041,0.004,0.041c0.027,0,0.08-0.006,0.125-0.049c0.975-1.052,2.273-2.461,2.295-2.484
				c0.27-0.268,0.488-0.694,0.488-1.071C22.785,18.924,22.637,18.568,22.371,18.303z"/>
		</g>
	</g>
</g>
</svg>
