<?xml version="1.0" encoding="utf-8"?>
<!-- Generator: Adobe Illustrator 16.0.0, SVG Export Plug-In . SVG Version: 6.00 Build 0)  -->
<!DOCTYPE svg PUBLIC "-//W3C//DTD SVG 1.1//EN" "http://www.w3.org/Graphics/SVG/1.1/DTD/svg11.dtd">
<svg version="1.1" id="Layer_1" xmlns="http://www.w3.org/2000/svg" xmlns:xlink="http://www.w3.org/1999/xlink" x="0px" y="0px"
	 width="24.997px" height="25px" viewBox="0 0 24.997 25" enable-background="new 0 0 24.997 25" xml:space="preserve">
<g>
	<g>
		<g>
			<path fill="#959EA7" d="M24.994,11.745v-0.011c0-0.014-0.006-0.025-0.006-0.039c-0.001-0.088-0.013-0.175-0.044-0.26
				c-0.047-0.227-0.127-0.443-0.26-0.624h0.004l-0.021-0.021c-0.08-0.105-0.174-0.198-0.279-0.281L20.308,6.4V3.878
				c0-0.432-0.35-0.781-0.781-0.781h-2.473l-2.851-2.434c-0.885-0.884-2.429-0.886-3.314,0L8.048,3.097H5.467
				c-0.432,0-0.781,0.35-0.781,0.781v2.573l-3.98,3.98C0.281,10.711,0,11.191,0,11.734v11.704C0,24.297,0.703,25,1.562,25h21.869
				c0.859,0,1.562-0.703,1.562-1.562V11.759C24.994,11.754,24.994,11.75,24.994,11.745z M6.563,17.711l-5,4.639v-9.052L6.563,17.711
				z M8.072,18.441c0.102-0.044,0.196-0.109,0.275-0.199c0.032-0.037,0.046-0.082,0.07-0.122l3.398-3.153
				c0.178-0.143,0.387-0.217,0.607-0.217c0.225,0,0.449,0.078,0.597,0.195l9.369,8.492H2.687L8.072,18.441z M18.511,17.813
				l4.92-4.366v8.825L18.511,17.813z M21.917,10.172h-0.023l1.34,1.362l-2.926,2.597V8.563L21.917,10.172z M11.992,1.768
				c0.148-0.146,0.345-0.229,0.553-0.229c0.208,0,0.404,0.082,0.552,0.229l1.577,1.329h-4.256L11.992,1.768z M18.746,4.659v10.859
				l-1.398,1.24l-3.328-3.016c-0.92-0.721-2.24-0.751-3.214,0.033l-3.091,2.868L6.248,15.35V4.659H18.746z M2.534,10.811L4.686,8.66
				v5.312L1.84,11.46l0.658-0.649H2.534z"/>
		</g>
	</g>
	<g>
		<g>
			<path fill="#959EA7" d="M16.63,8.218H8.365c-0.244,0-0.443-0.198-0.443-0.444c0-0.244,0.199-0.442,0.443-0.442h8.265
				c0.246,0,0.443,0.198,0.443,0.442C17.074,8.02,16.876,8.218,16.63,8.218z"/>
		</g>
		<g>
			<path fill="#959EA7" d="M16.63,11.167H8.365c-0.244,0-0.443-0.198-0.443-0.443s0.199-0.442,0.443-0.442h8.265
				c0.246,0,0.443,0.197,0.443,0.442S16.876,11.167,16.63,11.167z"/>
		</g>
	</g>
</g>
</svg>
