<?xml version="1.0" encoding="utf-8"?>
<!-- Generator: Adobe Illustrator 16.0.0, SVG Export Plug-In . SVG Version: 6.00 Build 0)  -->
<!DOCTYPE svg PUBLIC "-//W3C//DTD SVG 1.1//EN" "http://www.w3.org/Graphics/SVG/1.1/DTD/svg11.dtd">
<svg version="1.1" id="Layer_1" xmlns="http://www.w3.org/2000/svg" xmlns:xlink="http://www.w3.org/1999/xlink" x="0px" y="0px"
	 width="16px" height="16px" viewBox="0 0 16 16" enable-background="new 0 0 16 16" xml:space="preserve">
<path fill="#8B949D" d="M15.809,13.499l-3.016-3.018c-0.266-0.264-0.746-0.238-1.227,0.012L10.174,9.1
	c0.727-0.952,1.16-2.142,1.16-3.433C11.334,2.538,8.797,0,5.666,0C2.537,0,0,2.538,0,5.667c0,3.128,2.537,5.666,5.666,5.666
	c1.293,0,2.482-0.432,3.436-1.16l1.393,1.391c-0.25,0.484-0.277,0.965-0.012,1.23l3.018,3.016c0.379,0.381,1.207,0.172,1.846-0.467
	C15.982,14.708,16.191,13.879,15.809,13.499L15.809,13.499z M5.666,10c-2.393,0-4.332-1.938-4.332-4.333
	c0-2.393,1.939-4.333,4.332-4.333C8.061,1.332,10,3.274,10,5.667C10,8.062,8.061,10,5.666,10L5.666,10z M5.666,10"/>
</svg>
