<?xml version="1.0" encoding="utf-8"?>
<!-- Generator: Adobe Illustrator 16.0.0, SVG Export Plug-In . SVG Version: 6.00 Build 0)  -->
<!DOCTYPE svg PUBLIC "-//W3C//DTD SVG 1.1//EN" "http://www.w3.org/Graphics/SVG/1.1/DTD/svg11.dtd">
<svg version="1.1" id="Layer_1" xmlns="http://www.w3.org/2000/svg" xmlns:xlink="http://www.w3.org/1999/xlink" x="0px" y="0px"
	 width="24.001px" height="27.23px" viewBox="0 0 24.001 27.23" enable-background="new 0 0 24.001 27.23" xml:space="preserve">
<g>
	<g>
		<g>
			<g>
				<polygon fill="#959EA7" points="12.859,0.696 12.859,6.341 14.408,5.06 15.955,6.341 15.955,0.696 				"/>
			</g>
		</g>
		<g>
			<g>
				<path fill="#959EA7" d="M15.264,10.832H4.68c-0.312,0-0.568-0.253-0.568-0.569c0-0.31,0.256-0.562,0.568-0.562h10.584
					c0.314,0,0.568,0.253,0.568,0.562C15.83,10.579,15.578,10.832,15.264,10.832z"/>
			</g>
			<g>
				<path fill="#959EA7" d="M15.264,14.607H4.68c-0.312,0-0.568-0.254-0.568-0.565c0-0.314,0.256-0.569,0.568-0.569h10.584
					c0.314,0,0.568,0.255,0.568,0.569C15.83,14.353,15.578,14.607,15.264,14.607z"/>
			</g>
		</g>
	</g>
	<path fill="#959EA7" d="M13.07,23.931h-1.732v-0.002H2.377c-0.43-0.008-0.777-0.357-0.781-0.789V1.645
		c0-0.021,0.002-0.036,0.004-0.051c0.014,0,0.029,0,0.045,0h6.961v0.002h8.961c0.43,0.009,0.777,0.356,0.781,0.79v14.186
		c0.473-0.457,1.031-0.875,1.596-1.098V2.392V1.596C19.943,0.276,18.908,0,18.334,0h-0.783H9.479H1.645C0.5,0,0,0.847,0,1.645v8.192
		v13.297v0.795c0,1.32,1.035,1.596,1.609,1.596h0.783h8.072h4.045C14.053,25.019,13.537,24.447,13.07,23.931z"/>
	<g>
		<path fill-rule="evenodd" clip-rule="evenodd" fill="#959EA7" d="M23.008,17.763c-0.656-0.654-1.389-0.98-2.285-0.98
			c-0.854,0-1.807,0.684-2.52,1.404c-0.734-0.721-1.658-1.4-2.543-1.4c-0.865,0-1.627,0.258-2.262,0.893
			c-1.322,1.32-1.322,3.461,0,4.781c0.377,0.377,4.045,4.455,4.045,4.455c0.209,0.209,0.482,0.314,0.756,0.314
			s0.547-0.105,0.756-0.314c0,0,4.012-4.326,4.053-4.371C24.332,21.224,24.332,19.083,23.008,17.763z"/>
		<path fill-rule="evenodd" clip-rule="evenodd" fill="#FFFFFF" d="M21.973,18.662c-0.43-0.428-0.852-0.705-1.428-0.619
			c-0.408,0.062-1.346,0.713-1.928,1.303l-0.406,0.414h-0.033l-0.408-0.414c-0.58-0.59-1.518-1.24-1.926-1.303
			c-0.578-0.086-0.998,0.191-1.428,0.619c-0.404,0.404-0.627,0.939-0.627,1.51s0.33,1.215,0.738,1.621
			c0.033,0.035,1.998,2.168,3.471,3.758c0.068,0.064,0.146,0.074,0.189,0.074c0.002,0,0.004-0.023,0.006-0.062
			c0.002,0.039,0.004,0.062,0.006,0.062c0.043,0,0.123-0.01,0.191-0.074c1.473-1.59,3.438-3.723,3.469-3.758
			c0.41-0.406,0.74-1.051,0.74-1.621S22.375,19.066,21.973,18.662z"/>
	</g>
</g>
</svg>
