<?xml version="1.0" encoding="utf-8"?>
<!-- Generator: Adobe Illustrator 16.0.0, SVG Export Plug-In . SVG Version: 6.00 Build 0)  -->
<!DOCTYPE svg PUBLIC "-//W3C//DTD SVG 1.1//EN" "http://www.w3.org/Graphics/SVG/1.1/DTD/svg11.dtd">
<svg version="1.1" id="Layer_1" xmlns="http://www.w3.org/2000/svg" xmlns:xlink="http://www.w3.org/1999/xlink" x="0px" y="0px"
	 width="28.671px" height="25px" viewBox="0 0 28.671 25" enable-background="new 0 0 28.671 25" xml:space="preserve">
<g>
	<g>
		<path fill-rule="evenodd" clip-rule="evenodd" fill="#959EA7" d="M28.525,6.756c-0.15-0.213-0.395-0.34-0.654-0.34H7.76
			L6.465,1.949C5.957,0.19,4.75,0,4.254,0H0.801C0.359,0,0,0.358,0,0.801c0,0.443,0.359,0.801,0.801,0.801h3.453
			c0.111,0,0.443,0,0.672,0.786l4.455,16.376c0.096,0.345,0.412,0.584,0.77,0.584h13.885c0.336,0,0.639-0.213,0.752-0.53
			l3.836-11.33C28.711,7.242,28.676,6.969,28.525,6.756z M23.471,17.746H10.758L8.209,8.018h18.523L23.471,17.746z M21.883,20.969
			c-1.113,0-2.016,0.903-2.016,2.016c0,1.113,0.902,2.016,2.016,2.016s2.016-0.902,2.016-2.016
			C23.898,21.872,22.996,20.969,21.883,20.969z M11.627,20.969c-1.113,0-2.016,0.903-2.016,2.016c0,1.113,0.902,2.016,2.016,2.016
			s2.016-0.902,2.016-2.016C13.643,21.872,12.74,20.969,11.627,20.969z"/>
	</g>
</g>
</svg>
