<?xml version="1.0" encoding="utf-8"?>
<!-- Generator: Adobe Illustrator 16.0.0, SVG Export Plug-In . SVG Version: 6.00 Build 0)  -->
<!DOCTYPE svg PUBLIC "-//W3C//DTD SVG 1.1//EN" "http://www.w3.org/Graphics/SVG/1.1/DTD/svg11.dtd">
<svg version="1.1" id="Layer_1" xmlns="http://www.w3.org/2000/svg" xmlns:xlink="http://www.w3.org/1999/xlink" x="0px" y="0px"
	 width="16.65px" height="15px" viewBox="0 0 16.65 15" enable-background="new 0 0 16.65 15" xml:space="preserve">
<path fill="#98A7B1" d="M4.674,1.045c0.51,0,1.43,0.242,2.924,1.713l0.738,0.729l0.73-0.74c1.037-1.053,2.141-1.707,2.879-1.707
	c0.996,0,1.781,0.342,2.547,1.105c0.723,0.721,1.119,1.678,1.119,2.695c0.002,1.02-0.396,1.977-1.127,2.705
	c-0.059,0.061-3.195,3.445-5.824,6.281c-0.123,0.119-0.266,0.137-0.34,0.137s-0.215-0.018-0.338-0.133
	C7.342,13.119,2.699,7.957,2.16,7.416C1.438,6.695,1.039,5.738,1.039,4.719C1.041,3.701,1.438,2.744,2.16,2.023
	C2.863,1.32,3.686,1.045,4.674,1.045 M4.674,0.006c-1.242,0-2.336,0.371-3.248,1.281c-1.9,1.896-1.9,4.969,0,6.865
	c0.543,0.541,5.809,6.398,5.809,6.398C7.533,14.852,7.926,15,8.32,15c0.393,0,0.785-0.148,1.086-0.449c0,0,5.758-6.215,5.82-6.277
	c1.898-1.896,1.898-4.969,0-6.865C14.283,0.467,13.229,0,11.945,0c-1.229,0-2.598,0.979-3.619,2.018
	C7.271,0.979,5.945,0.006,4.674,0.006L4.674,0.006z"/>
</svg>
