<?xml version="1.0" encoding="utf-8"?>
<!-- Generator: Adobe Illustrator 16.0.0, SVG Export Plug-In . SVG Version: 6.00 Build 0)  -->
<!DOCTYPE svg PUBLIC "-//W3C//DTD SVG 1.1//EN" "http://www.w3.org/Graphics/SVG/1.1/DTD/svg11.dtd">
<svg version="1.1" id="Layer_1" xmlns="http://www.w3.org/2000/svg" xmlns:xlink="http://www.w3.org/1999/xlink" x="0px" y="0px"
	 width="20px" height="20px" viewBox="0 0 20 20" enable-background="new 0 0 20 20" xml:space="preserve">
<g>
	<g>
		<path fill="#97A6B0" d="M10,0C4.477,0,0,4.478,0,10c0,5.523,4.477,10,10,10s10-4.477,10-10C20,4.478,15.523,0,10,0z M10,18.77
			c-4.825,0-8.75-3.944-8.75-8.77c0-4.824,3.925-8.75,8.75-8.75s8.75,3.926,8.75,8.75C18.75,14.825,14.825,18.77,10,18.77z
			 M10.625,9.748V3.75c0-0.345-0.281-0.625-0.625-0.625S9.375,3.405,9.375,3.75V10c0,0.18,0.078,0.339,0.2,0.453
			c0.009,0.011,0.013,0.024,0.022,0.034l3.094,3.093c0.244,0.244,0.64,0.244,0.884,0s0.244-0.639,0-0.883L10.625,9.748z"/>
	</g>
</g>
</svg>
